<?xml version="1.0" encoding="UTF-8" standalone="no"?>
<!-- Created with Inkscape (http://www.inkscape.org/) -->

<svg
   xmlns:dc="http://purl.org/dc/elements/1.1/"
   xmlns:cc="http://creativecommons.org/ns#"
   xmlns:rdf="http://www.w3.org/1999/02/22-rdf-syntax-ns#"
   xmlns:svg="http://www.w3.org/2000/svg"
   xmlns="http://www.w3.org/2000/svg"
   xmlns:sodipodi="http://sodipodi.sourceforge.net/DTD/sodipodi-0.dtd"
   xmlns:inkscape="http://www.inkscape.org/namespaces/inkscape"
   width="350"
   height="350"
   viewBox="0 0 92.604164 92.604173"
   version="1.1"
   id="svg8"
   inkscape:version="0.92.4 (5da689c313, 2019-01-14)"
   sodipodi:docname="arp-composer-logo.svg">
  <defs
     id="defs2" />
  <sodipodi:namedview
     id="base"
     pagecolor="#ffffff"
     bordercolor="#666666"
     borderopacity="1.0"
     inkscape:pageopacity="0.0"
     inkscape:pageshadow="2"
     inkscape:zoom="0.53"
     inkscape:cx="197.90069"
     inkscape:cy="528.93739"
     inkscape:document-units="mm"
     inkscape:current-layer="layer1"
     showgrid="false"
     inkscape:window-width="1920"
     inkscape:window-height="1013"
     inkscape:window-x="1791"
     inkscape:window-y="-9"
     inkscape:window-maximized="1"
     units="px" />
  <metadata
     id="metadata5">
    <rdf:RDF>
      <cc:Work
         rdf:about="">
        <dc:format>image/svg+xml</dc:format>
        <dc:type
           rdf:resource="http://purl.org/dc/dcmitype/StillImage" />
        <dc:title></dc:title>
      </cc:Work>
    </rdf:RDF>
  </metadata>
  <g
     inkscape:label="Layer 1"
     inkscape:groupmode="layer"
     id="layer1"
     transform="translate(0,-204.39582)">
    <path
       style="fill:#000000;stroke-width:0.33753961"
       d="m 10.769112,292.92733 c -2.1442746,-1.23537 -4.6651298,-3.75872 -5.7544309,-5.76013 -1.958861,-3.59907 -1.9218836,-2.91146 -1.9175181,-35.65664 0.00319,-24.01733 0.094698,-30.39349 0.4555044,-31.74218 1.4455643,-5.40351 5.4483922,-9.38064 10.8598666,-10.79016 2.984942,-0.77747 60.78643,-0.77747 63.771369,0 5.411473,1.40952 9.414313,5.38665 10.859867,10.79016 0.360804,1.34869 0.452313,7.72485 0.455503,31.74218 0.0038,32.74144 0.04108,32.05804 -1.915754,35.6534 -1.141073,2.09654 -3.486407,4.46474 -5.651466,5.70656 l -1.711112,0.98146 -33.922713,3.4e-4 -33.922732,3.3e-4 -1.606384,-0.92547 z m 8.188405,-10.71412 v -7.59465 H 17.43859 15.919662 v -8.38223 c 0,-4.61023 -0.08066,-8.4629 -0.179268,-8.5615 -0.241846,-0.24186 -7.1584368,1.8688 -7.6127075,2.32307 -0.245256,0.24526 -0.3184924,3.78585 -0.2299918,11.1188 0.1518731,12.58371 0.2363131,13.00703 3.1658873,15.87137 1.966245,1.92247 3.835215,2.75231 6.290623,2.79312 l 1.603312,0.0267 z m 13.164046,-10.97004 c 0,-10.21058 -0.03798,-18.55963 -0.08439,-18.55343 -0.04641,0.006 -1.755205,0.51022 -3.79732,1.12006 l -3.712936,1.10881 -0.08946,9.8317 -0.08945,9.83167 -1.598244,0.1027 -1.598243,0.1027 -0.09085,7.51025 -0.09085,7.51026 h 5.57586 5.575862 z m 13.086111,11.05441 -0.09083,-7.51025 -1.603312,-0.10283 -1.603312,-0.10282 v -12.30171 c 0,-6.76594 -0.113923,-12.30258 -0.253145,-12.30364 -0.139247,-10e-4 -1.886009,0.4743 -3.881712,1.05635 l -3.628551,1.05831 v 18.85847 18.85848 h 5.575861 5.575862 z m 13.164058,0 -0.09083,-7.51025 -1.603313,-0.10283 -1.603325,-0.10282 v -14.32695 c 0,-7.87981 -0.03802,-14.3247 -0.08433,-14.32197 -0.04644,0.003 -0.995741,0.28937 -2.109615,0.63698 l -2.025238,0.63198 -0.08815,13.69014 -0.08815,13.69012 -1.599549,0.1027 -1.599536,0.1027 -0.09083,7.51025 -0.09083,7.51026 h 5.582308 5.582333 z m 13.16402,0 -0.09083,-7.51025 -1.603312,-0.10283 -1.603312,-0.10282 v -16.18341 c 0,-8.90089 -0.0782,-16.18341 -0.173858,-16.18341 -0.09568,0 -1.082938,0.25273 -2.194018,0.56164 l -2.020135,0.56166 -0.02207,1.54797 c -0.01276,0.85138 -0.05001,7.85152 -0.08433,15.55587 l -0.06238,14.00789 -1.518922,0.16877 -1.518922,0.16877 -0.09083,7.51026 -0.09083,7.51025 h 5.582308 5.582321 z m 7.443332,6.47458 c 2.371308,-1.18496 4.144485,-3.07162 5.011797,-5.33253 0.548275,-1.42925 0.609396,-3.45089 0.709516,-23.47106 0.06404,-12.80613 -0.01748,-22.03415 -0.196337,-22.21298 -0.290294,-0.29029 -5.896509,1.11362 -7.236585,1.81221 -0.550929,0.28719 -0.590694,1.47747 -0.590694,17.67935 v 17.37141 h -1.518934 -1.518922 v 7.59465 7.59463 h 1.633789 c 1.148052,0 2.24996,-0.30791 3.70637,-1.03568 z"
       id="path3724"
       inkscape:connector-curvature="0" />
  </g>
</svg>
